<svg class="main-svg" xmlns="http://www.w3.org/2000/svg" xmlns:xlink="http://www.w3.org/1999/xlink" width="1080" height="480" style="" viewBox="0 0 1080 480"><rect x="0" y="0" width="1080" height="480" style="fill: rgb(255, 255, 255); fill-opacity: 1;"/><defs id="defs-ea0a02"><g class="clips"><clipPath id="clipea0a02xyplot" class="plotclip"><rect width="888" height="290"/></clipPath><clipPath class="axesclip" id="clipea0a02x"><rect x="100" y="0" width="888" height="480"/></clipPath><clipPath class="axesclip" id="clipea0a02y"><rect x="0" y="110" width="1080" height="290"/></clipPath><clipPath class="axesclip" id="clipea0a02xy"><rect x="100" y="110" width="888" height="290"/></clipPath></g><g class="gradients"/><g class="patterns"/></defs><g class="bglayer"/><g class="layer-below"><g class="imagelayer"/><g class="shapelayer"/></g><g class="cartesianlayer"><g class="subplot xy"><g class="layer-subplot"><g class="shapelayer"/><g class="imagelayer"/></g><g class="gridlayer"><g class="x"/><g class="y"/></g><g class="zerolinelayer"/><path class="xlines-below"/><path class="ylines-below"/><g class="overlines-below"/><g class="xaxislayer-below"/><g class="yaxislayer-below"/><g class="overaxes-below"/><g class="plot" transform="translate(100,110)" clip-path="url(#clipea0a02xyplot)"><g class="scatterlayer mlayer"><g class="trace scatter trace3cffe1" style="stroke-miterlimit: 2; opacity: 1;"><g class="fills"/><g class="errorbars"/><g class="lines"><path class="js-line" d="M839.85,180.87L767.88,152.17L695.9,113.91L623.93,118.69L551.96,142.61L479.99,204.79L408.01,214.35L336.04,123.48L264.07,209.57L48.15,133.04" style="vector-effect: non-scaling-stroke; fill: none; stroke: rgb(99, 110, 250); stroke-opacity: 1; stroke-width: 2px; opacity: 1;"/></g><g class="points"><path class="point" transform="translate(839.85,180.87)" d="M3,0A3,3 0 1,1 0,-3A3,3 0 0,1 3,0Z" style="opacity: 1; stroke-width: 0px; fill: rgb(99, 110, 250); fill-opacity: 1;"/><path class="point" transform="translate(767.88,152.17)" d="M3,0A3,3 0 1,1 0,-3A3,3 0 0,1 3,0Z" style="opacity: 1; stroke-width: 0px; fill: rgb(99, 110, 250); fill-opacity: 1;"/><path class="point" transform="translate(695.9,113.91)" d="M3,0A3,3 0 1,1 0,-3A3,3 0 0,1 3,0Z" style="opacity: 1; stroke-width: 0px; fill: rgb(99, 110, 250); fill-opacity: 1;"/><path class="point" transform="translate(623.93,118.69)" d="M3,0A3,3 0 1,1 0,-3A3,3 0 0,1 3,0Z" style="opacity: 1; stroke-width: 0px; fill: rgb(99, 110, 250); fill-opacity: 1;"/><path class="point" transform="translate(551.96,142.61)" d="M3,0A3,3 0 1,1 0,-3A3,3 0 0,1 3,0Z" style="opacity: 1; stroke-width: 0px; fill: rgb(99, 110, 250); fill-opacity: 1;"/><path class="point" transform="translate(479.99,204.79)" d="M3,0A3,3 0 1,1 0,-3A3,3 0 0,1 3,0Z" style="opacity: 1; stroke-width: 0px; fill: rgb(99, 110, 250); fill-opacity: 1;"/><path class="point" transform="translate(408.01,214.35)" d="M3,0A3,3 0 1,1 0,-3A3,3 0 0,1 3,0Z" style="opacity: 1; stroke-width: 0px; fill: rgb(99, 110, 250); fill-opacity: 1;"/><path class="point" transform="translate(336.04,123.48)" d="M3,0A3,3 0 1,1 0,-3A3,3 0 0,1 3,0Z" style="opacity: 1; stroke-width: 0px; fill: rgb(99, 110, 250); fill-opacity: 1;"/><path class="point" transform="translate(264.07,209.57)" d="M3,0A3,3 0 1,1 0,-3A3,3 0 0,1 3,0Z" style="opacity: 1; stroke-width: 0px; fill: rgb(99, 110, 250); fill-opacity: 1;"/><path class="point" transform="translate(48.15,133.04)" d="M3,0A3,3 0 1,1 0,-3A3,3 0 0,1 3,0Z" style="opacity: 1; stroke-width: 0px; fill: rgb(99, 110, 250); fill-opacity: 1;"/></g><g class="text"><g class="textpoint" transform="translate(0,-7.75)"><text x="839.85" y="180.87" text-anchor="middle" style="font-family: 'Open Sans', verdana, arial, sans-serif; font-size: 12px; fill: rgb(42, 63, 95); fill-opacity: 1; white-space: pre;">21</text></g><g class="textpoint" transform="translate(0,-7.75)"><text x="767.88" y="152.17" text-anchor="middle" style="font-family: 'Open Sans', verdana, arial, sans-serif; font-size: 12px; fill: rgb(42, 63, 95); fill-opacity: 1; white-space: pre;">27</text></g><g class="textpoint" transform="translate(0,-7.75)"><text x="695.9" y="113.91" text-anchor="middle" style="font-family: 'Open Sans', verdana, arial, sans-serif; font-size: 12px; fill: rgb(42, 63, 95); fill-opacity: 1; white-space: pre;">35</text></g><g class="textpoint" transform="translate(0,-7.75)"><text x="623.93" y="118.69" text-anchor="middle" style="font-family: 'Open Sans', verdana, arial, sans-serif; font-size: 12px; fill: rgb(42, 63, 95); fill-opacity: 1; white-space: pre;">34</text></g><g class="textpoint" transform="translate(0,-7.75)"><text x="551.96" y="142.61" text-anchor="middle" style="font-family: 'Open Sans', verdana, arial, sans-serif; font-size: 12px; fill: rgb(42, 63, 95); fill-opacity: 1; white-space: pre;">29</text></g><g class="textpoint" transform="translate(0,-7.75)"><text x="479.99" y="204.79" text-anchor="middle" style="font-family: 'Open Sans', verdana, arial, sans-serif; font-size: 12px; fill: rgb(42, 63, 95); fill-opacity: 1; white-space: pre;">16</text></g><g class="textpoint" transform="translate(0,-7.75)"><text x="408.01" y="214.35" text-anchor="middle" style="font-family: 'Open Sans', verdana, arial, sans-serif; font-size: 12px; fill: rgb(42, 63, 95); fill-opacity: 1; white-space: pre;">14</text></g><g class="textpoint" transform="translate(0,-7.75)"><text x="336.04" y="123.48" text-anchor="middle" style="font-family: 'Open Sans', verdana, arial, sans-serif; font-size: 12px; fill: rgb(42, 63, 95); fill-opacity: 1; white-space: pre;">33</text></g><g class="textpoint" transform="translate(0,-7.75)"><text x="264.07" y="209.57" text-anchor="middle" style="font-family: 'Open Sans', verdana, arial, sans-serif; font-size: 12px; fill: rgb(42, 63, 95); fill-opacity: 1; white-space: pre;">15</text></g><g class="textpoint" transform="translate(0,-7.75)"><text x="48.15" y="133.04" text-anchor="middle" style="font-family: 'Open Sans', verdana, arial, sans-serif; font-size: 12px; fill: rgb(42, 63, 95); fill-opacity: 1; white-space: pre;">31</text></g></g></g><g class="trace scatter tracea74501" style="stroke-miterlimit: 2; opacity: 1;"><g class="fills"/><g class="errorbars"/><g class="lines"><path class="js-line" d="M839.85,209.57L767.88,176.09L695.9,166.52L623.93,18.25L551.96,99.56L479.99,142.61L408.01,70.86L336.04,161.74L264.07,94.78" style="vector-effect: non-scaling-stroke; fill: none; stroke: rgb(239, 85, 59); stroke-opacity: 1; stroke-width: 2px; opacity: 1;"/></g><g class="points"><path class="point" transform="translate(839.85,209.57)" d="M3,0A3,3 0 1,1 0,-3A3,3 0 0,1 3,0Z" style="opacity: 1; stroke-width: 0px; fill: rgb(239, 85, 59); fill-opacity: 1;"/><path class="point" transform="translate(767.88,176.09)" d="M3,0A3,3 0 1,1 0,-3A3,3 0 0,1 3,0Z" style="opacity: 1; stroke-width: 0px; fill: rgb(239, 85, 59); fill-opacity: 1;"/><path class="point" transform="translate(695.9,166.52)" d="M3,0A3,3 0 1,1 0,-3A3,3 0 0,1 3,0Z" style="opacity: 1; stroke-width: 0px; fill: rgb(239, 85, 59); fill-opacity: 1;"/><path class="point" transform="translate(623.93,18.25)" d="M3,0A3,3 0 1,1 0,-3A3,3 0 0,1 3,0Z" style="opacity: 1; stroke-width: 0px; fill: rgb(239, 85, 59); fill-opacity: 1;"/><path class="point" transform="translate(551.96,99.56)" d="M3,0A3,3 0 1,1 0,-3A3,3 0 0,1 3,0Z" style="opacity: 1; stroke-width: 0px; fill: rgb(239, 85, 59); fill-opacity: 1;"/><path class="point" transform="translate(479.99,142.61)" d="M3,0A3,3 0 1,1 0,-3A3,3 0 0,1 3,0Z" style="opacity: 1; stroke-width: 0px; fill: rgb(239, 85, 59); fill-opacity: 1;"/><path class="point" transform="translate(408.01,70.86)" d="M3,0A3,3 0 1,1 0,-3A3,3 0 0,1 3,0Z" style="opacity: 1; stroke-width: 0px; fill: rgb(239, 85, 59); fill-opacity: 1;"/><path class="point" transform="translate(336.04,161.74)" d="M3,0A3,3 0 1,1 0,-3A3,3 0 0,1 3,0Z" style="opacity: 1; stroke-width: 0px; fill: rgb(239, 85, 59); fill-opacity: 1;"/><path class="point" transform="translate(264.07,94.78)" d="M3,0A3,3 0 1,1 0,-3A3,3 0 0,1 3,0Z" style="opacity: 1; stroke-width: 0px; fill: rgb(239, 85, 59); fill-opacity: 1;"/></g><g class="text"><g class="textpoint" transform="translate(0,-7.75)"><text x="839.85" y="209.57" text-anchor="middle" style="font-family: 'Open Sans', verdana, arial, sans-serif; font-size: 12px; fill: rgb(42, 63, 95); fill-opacity: 1; white-space: pre;">15</text></g><g class="textpoint" transform="translate(0,-7.75)"><text x="767.88" y="176.09" text-anchor="middle" style="font-family: 'Open Sans', verdana, arial, sans-serif; font-size: 12px; fill: rgb(42, 63, 95); fill-opacity: 1; white-space: pre;">22</text></g><g class="textpoint" transform="translate(0,-7.75)"><text x="695.9" y="166.52" text-anchor="middle" style="font-family: 'Open Sans', verdana, arial, sans-serif; font-size: 12px; fill: rgb(42, 63, 95); fill-opacity: 1; white-space: pre;">24</text></g><g class="textpoint" transform="translate(0,-7.75)"><text x="623.93" y="18.25" text-anchor="middle" style="font-family: 'Open Sans', verdana, arial, sans-serif; font-size: 12px; fill: rgb(42, 63, 95); fill-opacity: 1; white-space: pre;">55</text></g><g class="textpoint" transform="translate(0,-7.75)"><text x="551.96" y="99.56" text-anchor="middle" style="font-family: 'Open Sans', verdana, arial, sans-serif; font-size: 12px; fill: rgb(42, 63, 95); fill-opacity: 1; white-space: pre;">38</text></g><g class="textpoint" transform="translate(0,-7.75)"><text x="479.99" y="142.61" text-anchor="middle" style="font-family: 'Open Sans', verdana, arial, sans-serif; font-size: 12px; fill: rgb(42, 63, 95); fill-opacity: 1; white-space: pre;">29</text></g><g class="textpoint" transform="translate(0,-7.75)"><text x="408.01" y="70.86" text-anchor="middle" style="font-family: 'Open Sans', verdana, arial, sans-serif; font-size: 12px; fill: rgb(42, 63, 95); fill-opacity: 1; white-space: pre;">44</text></g><g class="textpoint" transform="translate(0,-7.75)"><text x="336.04" y="161.74" text-anchor="middle" style="font-family: 'Open Sans', verdana, arial, sans-serif; font-size: 12px; fill: rgb(42, 63, 95); fill-opacity: 1; white-space: pre;">25</text></g><g class="textpoint" transform="translate(0,-7.75)"><text x="264.07" y="94.78" text-anchor="middle" style="font-family: 'Open Sans', verdana, arial, sans-serif; font-size: 12px; fill: rgb(42, 63, 95); fill-opacity: 1; white-space: pre;">39</text></g></g></g><g class="trace scatter tracef828c2" style="stroke-miterlimit: 2; opacity: 1;"><g class="fills"/><g class="errorbars"/><g class="lines"><path class="js-line" d="M839.85,271.75L767.88,243.05L695.9,271.75L623.93,257.4L551.96,252.62L479.99,271.75L408.01,252.62L336.04,266.97L264.07,247.83L48.15,228.7" style="vector-effect: non-scaling-stroke; fill: none; stroke: rgb(0, 204, 150); stroke-opacity: 1; stroke-width: 2px; opacity: 1;"/></g><g class="points"><path class="point" transform="translate(839.85,271.75)" d="M3,0A3,3 0 1,1 0,-3A3,3 0 0,1 3,0Z" style="opacity: 1; stroke-width: 0px; fill: rgb(0, 204, 150); fill-opacity: 1;"/><path class="point" transform="translate(767.88,243.05)" d="M3,0A3,3 0 1,1 0,-3A3,3 0 0,1 3,0Z" style="opacity: 1; stroke-width: 0px; fill: rgb(0, 204, 150); fill-opacity: 1;"/><path class="point" transform="translate(695.9,271.75)" d="M3,0A3,3 0 1,1 0,-3A3,3 0 0,1 3,0Z" style="opacity: 1; stroke-width: 0px; fill: rgb(0, 204, 150); fill-opacity: 1;"/><path class="point" transform="translate(623.93,257.4)" d="M3,0A3,3 0 1,1 0,-3A3,3 0 0,1 3,0Z" style="opacity: 1; stroke-width: 0px; fill: rgb(0, 204, 150); fill-opacity: 1;"/><path class="point" transform="translate(551.96,252.62)" d="M3,0A3,3 0 1,1 0,-3A3,3 0 0,1 3,0Z" style="opacity: 1; stroke-width: 0px; fill: rgb(0, 204, 150); fill-opacity: 1;"/><path class="point" transform="translate(479.99,271.75)" d="M3,0A3,3 0 1,1 0,-3A3,3 0 0,1 3,0Z" style="opacity: 1; stroke-width: 0px; fill: rgb(0, 204, 150); fill-opacity: 1;"/><path class="point" transform="translate(408.01,252.62)" d="M3,0A3,3 0 1,1 0,-3A3,3 0 0,1 3,0Z" style="opacity: 1; stroke-width: 0px; fill: rgb(0, 204, 150); fill-opacity: 1;"/><path class="point" transform="translate(336.04,266.97)" d="M3,0A3,3 0 1,1 0,-3A3,3 0 0,1 3,0Z" style="opacity: 1; stroke-width: 0px; fill: rgb(0, 204, 150); fill-opacity: 1;"/><path class="point" transform="translate(264.07,247.83)" d="M3,0A3,3 0 1,1 0,-3A3,3 0 0,1 3,0Z" style="opacity: 1; stroke-width: 0px; fill: rgb(0, 204, 150); fill-opacity: 1;"/><path class="point" transform="translate(48.15,228.7)" d="M3,0A3,3 0 1,1 0,-3A3,3 0 0,1 3,0Z" style="opacity: 1; stroke-width: 0px; fill: rgb(0, 204, 150); fill-opacity: 1;"/></g><g class="text"><g class="textpoint" transform="translate(0,-7.75)"><text x="839.85" y="271.75" text-anchor="middle" style="font-family: 'Open Sans', verdana, arial, sans-serif; font-size: 12px; fill: rgb(42, 63, 95); fill-opacity: 1; white-space: pre;">2</text></g><g class="textpoint" transform="translate(0,-7.75)"><text x="767.88" y="243.05" text-anchor="middle" style="font-family: 'Open Sans', verdana, arial, sans-serif; font-size: 12px; fill: rgb(42, 63, 95); fill-opacity: 1; white-space: pre;">8</text></g><g class="textpoint" transform="translate(0,-7.75)"><text x="695.9" y="271.75" text-anchor="middle" style="font-family: 'Open Sans', verdana, arial, sans-serif; font-size: 12px; fill: rgb(42, 63, 95); fill-opacity: 1; white-space: pre;">2</text></g><g class="textpoint" transform="translate(0,-7.75)"><text x="623.93" y="257.4" text-anchor="middle" style="font-family: 'Open Sans', verdana, arial, sans-serif; font-size: 12px; fill: rgb(42, 63, 95); fill-opacity: 1; white-space: pre;">5</text></g><g class="textpoint" transform="translate(0,-7.75)"><text x="551.96" y="252.62" text-anchor="middle" style="font-family: 'Open Sans', verdana, arial, sans-serif; font-size: 12px; fill: rgb(42, 63, 95); fill-opacity: 1; white-space: pre;">6</text></g><g class="textpoint" transform="translate(0,-7.75)"><text x="479.99" y="271.75" text-anchor="middle" style="font-family: 'Open Sans', verdana, arial, sans-serif; font-size: 12px; fill: rgb(42, 63, 95); fill-opacity: 1; white-space: pre;">2</text></g><g class="textpoint" transform="translate(0,-7.75)"><text x="408.01" y="252.62" text-anchor="middle" style="font-family: 'Open Sans', verdana, arial, sans-serif; font-size: 12px; fill: rgb(42, 63, 95); fill-opacity: 1; white-space: pre;">6</text></g><g class="textpoint" transform="translate(0,-7.75)"><text x="336.04" y="266.97" text-anchor="middle" style="font-family: 'Open Sans', verdana, arial, sans-serif; font-size: 12px; fill: rgb(42, 63, 95); fill-opacity: 1; white-space: pre;">3</text></g><g class="textpoint" transform="translate(0,-7.75)"><text x="264.07" y="247.83" text-anchor="middle" style="font-family: 'Open Sans', verdana, arial, sans-serif; font-size: 12px; fill: rgb(42, 63, 95); fill-opacity: 1; white-space: pre;">7</text></g><g class="textpoint" transform="translate(0,-7.75)"><text x="48.15" y="228.7" text-anchor="middle" style="font-family: 'Open Sans', verdana, arial, sans-serif; font-size: 12px; fill: rgb(42, 63, 95); fill-opacity: 1; white-space: pre;">11</text></g></g></g></g></g><g class="overplot"/><path class="xlines-above crisp" d="M98,401H990" style="fill: none; stroke-width: 2px; stroke: rgb(51, 51, 51); stroke-opacity: 1;"/><path class="ylines-above crisp" d="M99,110V400M989,110V400" style="fill: none; stroke-width: 2px; stroke: rgb(51, 51, 51); stroke-opacity: 1;"/><g class="overlines-above"/><g class="xaxislayer-above"><path class="xtick ticks crisp" d="M0,402v5" transform="translate(148.15,0)" style="stroke: rgb(68, 68, 68); stroke-opacity: 1; stroke-width: 1px;"/><path class="xtick ticks crisp" d="M0,402v5" transform="translate(292.1,0)" style="stroke: rgb(68, 68, 68); stroke-opacity: 1; stroke-width: 1px;"/><path class="xtick ticks crisp" d="M0,402v5" transform="translate(436.04,0)" style="stroke: rgb(68, 68, 68); stroke-opacity: 1; stroke-width: 1px;"/><path class="xtick ticks crisp" d="M0,402v5" transform="translate(579.99,0)" style="stroke: rgb(68, 68, 68); stroke-opacity: 1; stroke-width: 1px;"/><path class="xtick ticks crisp" d="M0,402v5" transform="translate(723.93,0)" style="stroke: rgb(68, 68, 68); stroke-opacity: 1; stroke-width: 1px;"/><path class="xtick ticks crisp" d="M0,402v5" transform="translate(867.88,0)" style="stroke: rgb(68, 68, 68); stroke-opacity: 1; stroke-width: 1px;"/><g class="xtick"><text text-anchor="middle" x="0" y="421.4" transform="translate(148.15,0)" style="font-family: Helvetica; font-size: 12px; fill: rgb(51, 51, 51); fill-opacity: 1; white-space: pre; opacity: 1;">2010</text></g><g class="xtick"><text text-anchor="middle" x="0" y="421.4" style="font-family: Helvetica; font-size: 12px; fill: rgb(51, 51, 51); fill-opacity: 1; white-space: pre; opacity: 1;" transform="translate(292.1,0)">2012</text></g><g class="xtick"><text text-anchor="middle" x="0" y="421.4" style="font-family: Helvetica; font-size: 12px; fill: rgb(51, 51, 51); fill-opacity: 1; white-space: pre; opacity: 1;" transform="translate(436.04,0)">2014</text></g><g class="xtick"><text text-anchor="middle" x="0" y="421.4" style="font-family: Helvetica; font-size: 12px; fill: rgb(51, 51, 51); fill-opacity: 1; white-space: pre; opacity: 1;" transform="translate(579.99,0)">2016</text></g><g class="xtick"><text text-anchor="middle" x="0" y="421.4" style="font-family: Helvetica; font-size: 12px; fill: rgb(51, 51, 51); fill-opacity: 1; white-space: pre; opacity: 1;" transform="translate(723.93,0)">2018</text></g><g class="xtick"><text text-anchor="middle" x="0" y="421.4" style="font-family: Helvetica; font-size: 12px; fill: rgb(51, 51, 51); fill-opacity: 1; white-space: pre; opacity: 1;" transform="translate(867.88,0)">2020</text></g></g><g class="yaxislayer-above"><path class="ytick ticks crisp" d="M98,0h-5" transform="translate(0,391.32)" style="stroke: rgb(68, 68, 68); stroke-opacity: 1; stroke-width: 1px;"/><path class="ytick ticks crisp" d="M98,0h-5" transform="translate(0,343.49)" style="stroke: rgb(68, 68, 68); stroke-opacity: 1; stroke-width: 1px;"/><path class="ytick ticks crisp" d="M98,0h-5" transform="translate(0,295.65999999999997)" style="stroke: rgb(68, 68, 68); stroke-opacity: 1; stroke-width: 1px;"/><path class="ytick ticks crisp" d="M98,0h-5" transform="translate(0,247.83)" style="stroke: rgb(68, 68, 68); stroke-opacity: 1; stroke-width: 1px;"/><path class="ytick ticks crisp" d="M98,0h-5" transform="translate(0,200)" style="stroke: rgb(68, 68, 68); stroke-opacity: 1; stroke-width: 1px;"/><path class="ytick ticks crisp" d="M98,0h-5" transform="translate(0,152.17000000000002)" style="stroke: rgb(68, 68, 68); stroke-opacity: 1; stroke-width: 1px;"/><g class="ytick"><text text-anchor="end" x="90.6" y="4.199999999999999" transform="translate(0,391.32)" style="font-family: Helvetica; font-size: 12px; fill: rgb(51, 51, 51); fill-opacity: 1; white-space: pre; opacity: 1;">0</text></g><g class="ytick"><text text-anchor="end" x="90.6" y="4.199999999999999" style="font-family: Helvetica; font-size: 12px; fill: rgb(51, 51, 51); fill-opacity: 1; white-space: pre; opacity: 1;" transform="translate(0,343.49)">10</text></g><g class="ytick"><text text-anchor="end" x="90.6" y="4.199999999999999" style="font-family: Helvetica; font-size: 12px; fill: rgb(51, 51, 51); fill-opacity: 1; white-space: pre; opacity: 1;" transform="translate(0,295.65999999999997)">20</text></g><g class="ytick"><text text-anchor="end" x="90.6" y="4.199999999999999" style="font-family: Helvetica; font-size: 12px; fill: rgb(51, 51, 51); fill-opacity: 1; white-space: pre; opacity: 1;" transform="translate(0,247.83)">30</text></g><g class="ytick"><text text-anchor="end" x="90.6" y="4.199999999999999" style="font-family: Helvetica; font-size: 12px; fill: rgb(51, 51, 51); fill-opacity: 1; white-space: pre; opacity: 1;" transform="translate(0,200)">40</text></g><g class="ytick"><text text-anchor="end" x="90.6" y="4.199999999999999" style="font-family: Helvetica; font-size: 12px; fill: rgb(51, 51, 51); fill-opacity: 1; white-space: pre; opacity: 1;" transform="translate(0,152.17000000000002)">50</text></g></g><g class="overaxes-above"/></g></g><g class="polarlayer"/><g class="smithlayer"/><g class="ternarylayer"/><g class="geolayer"/><g class="funnelarealayer"/><g class="pielayer"/><g class="iciclelayer"/><g class="treemaplayer"/><g class="sunburstlayer"/><g class="glimages"/><defs id="topdefs-ea0a02"><g class="clips"/><clipPath id="legendea0a02"><rect width="62" height="67" x="0" y="0"/></clipPath></defs><g class="layer-above"><g class="imagelayer"/><g class="shapelayer"/></g><g class="infolayer"><g class="legend" pointer-events="all" transform="translate(1005.76,110)"><rect class="bg" shape-rendering="crispEdges" style="stroke: rgb(68, 68, 68); stroke-opacity: 1; fill: rgb(255, 255, 255); fill-opacity: 1; stroke-width: 0px;" width="62" height="67" x="0" y="0"/><g class="scrollbox" transform="" clip-path="url(#legendea0a02)"><g class="groups"><g class="traces" transform="translate(0,14.5)" style="opacity: 1;"><text class="legendtext" text-anchor="start" x="40" y="4.680000000000001" style="font-family: 'Open Sans', verdana, arial, sans-serif; font-size: 12px; fill: rgb(42, 63, 95); fill-opacity: 1; white-space: pre;">KZ</text><g class="layers" style="opacity: 1;"><g class="legendfill"/><g class="legendlines"><path class="js-line" d="M5,0h30" style="fill: none; stroke: rgb(99, 110, 250); stroke-opacity: 1; stroke-width: 2px;"/></g><g class="legendsymbols"><g class="legendpoints"><path class="scatterpts" transform="translate(20,0)" d="M3,0A3,3 0 1,1 0,-3A3,3 0 0,1 3,0Z" style="opacity: 1; stroke-width: 0px; fill: rgb(99, 110, 250); fill-opacity: 1;"/></g></g></g><rect class="legendtoggle" x="0" y="-9.5" width="56.15625" height="19" style="fill: rgb(0, 0, 0); fill-opacity: 0;"/></g><g class="traces" transform="translate(0,33.5)" style="opacity: 1;"><text class="legendtext" text-anchor="start" x="40" y="4.680000000000001" style="font-family: 'Open Sans', verdana, arial, sans-serif; font-size: 12px; fill: rgb(42, 63, 95); fill-opacity: 1; white-space: pre;">UZ</text><g class="layers" style="opacity: 1;"><g class="legendfill"/><g class="legendlines"><path class="js-line" d="M5,0h30" style="fill: none; stroke: rgb(239, 85, 59); stroke-opacity: 1; stroke-width: 2px;"/></g><g class="legendsymbols"><g class="legendpoints"><path class="scatterpts" transform="translate(20,0)" d="M3,0A3,3 0 1,1 0,-3A3,3 0 0,1 3,0Z" style="opacity: 1; stroke-width: 0px; fill: rgb(239, 85, 59); fill-opacity: 1;"/></g></g></g><rect class="legendtoggle" x="0" y="-9.5" width="56.15625" height="19" style="fill: rgb(0, 0, 0); fill-opacity: 0;"/></g><g class="traces" transform="translate(0,52.5)" style="opacity: 1;"><text class="legendtext" text-anchor="start" x="40" y="4.680000000000001" style="font-family: 'Open Sans', verdana, arial, sans-serif; font-size: 12px; fill: rgb(42, 63, 95); fill-opacity: 1; white-space: pre;">RU</text><g class="layers" style="opacity: 1;"><g class="legendfill"/><g class="legendlines"><path class="js-line" d="M5,0h30" style="fill: none; stroke: rgb(0, 204, 150); stroke-opacity: 1; stroke-width: 2px;"/></g><g class="legendsymbols"><g class="legendpoints"><path class="scatterpts" transform="translate(20,0)" d="M3,0A3,3 0 1,1 0,-3A3,3 0 0,1 3,0Z" style="opacity: 1; stroke-width: 0px; fill: rgb(0, 204, 150); fill-opacity: 1;"/></g></g></g><rect class="legendtoggle" x="0" y="-9.5" width="56.15625" height="19" style="fill: rgb(0, 0, 0); fill-opacity: 0;"/></g></g></g><rect class="scrollbar" rx="20" ry="3" width="0" height="0" style="fill: rgb(128, 139, 164); fill-opacity: 1;" x="0" y="0"/></g><g class="g-gtitle"><text class="gtitle" x="540" y="72" text-anchor="middle" dy="0.7em" style="font-family: 'Open Sans', verdana, arial, sans-serif; font-size: 17px; fill: rgb(51, 51, 51); opacity: 1; font-weight: normal; white-space: pre;">Командный рейтинг на IChO</text></g><g class="g-xtitle"><text class="xtitle" x="544" y="449.20625" text-anchor="middle" style="font-family: 'Open Sans', verdana, arial, sans-serif; font-size: 14px; fill: rgb(42, 63, 95); opacity: 1; font-weight: normal; white-space: pre;">Год</text></g><g class="g-ytitle"><text class="ytitle" transform="rotate(-90,52.45,255)" x="52.45" y="255" text-anchor="middle" style="font-family: 'Open Sans', verdana, arial, sans-serif; font-size: 14px; fill: rgb(42, 63, 95); opacity: 1; font-weight: normal; white-space: pre;">Место в рейтинге</text></g></g></svg>