<svg class="main-svg" xmlns="http://www.w3.org/2000/svg" xmlns:xlink="http://www.w3.org/1999/xlink" width="1080" height="480" style="" viewBox="0 0 1080 480"><rect x="0" y="0" width="1080" height="480" style="fill: rgb(255, 255, 255); fill-opacity: 1;"/><defs id="defs-79ec5d"><g class="clips"><clipPath id="clip79ec5dxyplot" class="plotclip"><rect width="708" height="290"/></clipPath><clipPath class="axesclip" id="clip79ec5dx"><rect x="100" y="0" width="708" height="480"/></clipPath><clipPath class="axesclip" id="clip79ec5dy"><rect x="0" y="110" width="1080" height="290"/></clipPath><clipPath class="axesclip" id="clip79ec5dxy"><rect x="100" y="110" width="708" height="290"/></clipPath></g><g class="gradients"/><g class="patterns"/></defs><g class="bglayer"/><g class="layer-below"><g class="imagelayer"/><g class="shapelayer"/></g><g class="cartesianlayer"><g class="subplot xy"><g class="layer-subplot"><g class="shapelayer"/><g class="imagelayer"/></g><g class="gridlayer"><g class="x"/><g class="y"/></g><g class="zerolinelayer"/><path class="xlines-below"/><path class="ylines-below"/><g class="overlines-below"/><g class="xaxislayer-below"/><g class="yaxislayer-below"/><g class="overaxes-below"/><g class="plot" transform="translate(100,110)" clip-path="url(#clip79ec5dxyplot)"><g class="barlayer mlayer"><g class="trace bars" style="opacity: 1;"><g class="points"><g class="point"><path d="M16.25,8.6V230.48H62.05V8.6Z" style="vector-effect: non-scaling-stroke; opacity: 1; stroke-width: 0.5px; fill: rgb(187, 189, 246); fill-opacity: 1; stroke: rgb(229, 236, 246); stroke-opacity: 1;"/></g><g class="point"><path d="M73.5,8.6V240.13H119.29V8.6Z" style="vector-effect: non-scaling-stroke; opacity: 1; stroke-width: 0.5px; fill: rgb(187, 189, 246); fill-opacity: 1; stroke: rgb(229, 236, 246); stroke-opacity: 1;"/></g><g class="point"><path d="M130.74,8.6V265.85H176.54V8.6Z" style="vector-effect: non-scaling-stroke; opacity: 1; stroke-width: 0.5px; fill: rgb(187, 189, 246); fill-opacity: 1; stroke: rgb(229, 236, 246); stroke-opacity: 1;"/></g><g class="point"><path d="M187.99,8.6V269.07H233.78V8.6Z" style="vector-effect: non-scaling-stroke; opacity: 1; stroke-width: 0.5px; fill: rgb(187, 189, 246); fill-opacity: 1; stroke: rgb(229, 236, 246); stroke-opacity: 1;"/></g><g class="point"><path d="M245.23,8.6V275.5H291.03V8.6Z" style="vector-effect: non-scaling-stroke; opacity: 1; stroke-width: 0.5px; fill: rgb(187, 189, 246); fill-opacity: 1; stroke: rgb(229, 236, 246); stroke-opacity: 1;"/></g><g class="point"><path d="M302.48,8.6V240.13H348.28V8.6Z" style="vector-effect: non-scaling-stroke; opacity: 1; stroke-width: 0.5px; fill: rgb(187, 189, 246); fill-opacity: 1; stroke: rgb(229, 236, 246); stroke-opacity: 1;"/></g><g class="point"><path d="M359.72,8.6V243.34H405.52V8.6Z" style="vector-effect: non-scaling-stroke; opacity: 1; stroke-width: 0.5px; fill: rgb(187, 189, 246); fill-opacity: 1; stroke: rgb(229, 236, 246); stroke-opacity: 1;"/></g><g class="point"><path d="M416.97,8.6V272.28H462.77V8.6Z" style="vector-effect: non-scaling-stroke; opacity: 1; stroke-width: 0.5px; fill: rgb(187, 189, 246); fill-opacity: 1; stroke: rgb(229, 236, 246); stroke-opacity: 1;"/></g><g class="point"><path d="M474.22,8.6V233.7H520.01V8.6Z" style="vector-effect: non-scaling-stroke; opacity: 1; stroke-width: 0.5px; fill: rgb(187, 189, 246); fill-opacity: 1; stroke: rgb(229, 236, 246); stroke-opacity: 1;"/></g><g class="point"><path d="M531.46,8.6V217.62H577.26V8.6Z" style="vector-effect: non-scaling-stroke; opacity: 1; stroke-width: 0.5px; fill: rgb(187, 189, 246); fill-opacity: 1; stroke: rgb(229, 236, 246); stroke-opacity: 1;"/></g><g class="point"><path d="M588.71,8.6V140.44H634.5V8.6Z" style="vector-effect: non-scaling-stroke; opacity: 1; stroke-width: 0.5px; fill: rgb(187, 189, 246); fill-opacity: 1; stroke: rgb(229, 236, 246); stroke-opacity: 1;"/></g><g class="point"><path d="M645.95,8.6V224.05H691.75V8.6Z" style="vector-effect: non-scaling-stroke; opacity: 1; stroke-width: 0.5px; fill: rgb(187, 189, 246); fill-opacity: 1; stroke: rgb(229, 236, 246); stroke-opacity: 1;"/></g></g></g><g class="trace bars" style="opacity: 1;"><g class="points"><g class="point"><path d="M16.25,8.6V60.05H62.05V8.6Z" style="vector-effect: non-scaling-stroke; opacity: 1; stroke-width: 0.5px; fill: rgb(106, 76, 147); fill-opacity: 1; stroke: rgb(229, 236, 246); stroke-opacity: 1;"/></g><g class="point"><path d="M73.5,8.6V31.11H119.29V8.6Z" style="vector-effect: non-scaling-stroke; opacity: 1; stroke-width: 0.5px; fill: rgb(106, 76, 147); fill-opacity: 1; stroke: rgb(229, 236, 246); stroke-opacity: 1;"/></g><g class="point"><path d="M130.74,8.6V50.41H176.54V8.6Z" style="vector-effect: non-scaling-stroke; opacity: 1; stroke-width: 0.5px; fill: rgb(106, 76, 147); fill-opacity: 1; stroke: rgb(229, 236, 246); stroke-opacity: 1;"/></g><g class="point"><path d="M187.99,8.6V63.27H233.78V8.6Z" style="vector-effect: non-scaling-stroke; opacity: 1; stroke-width: 0.5px; fill: rgb(106, 76, 147); fill-opacity: 1; stroke: rgb(229, 236, 246); stroke-opacity: 1;"/></g><g class="point"><path d="M245.23,8.6V21.47H291.03V8.6Z" style="vector-effect: non-scaling-stroke; opacity: 1; stroke-width: 0.5px; fill: rgb(106, 76, 147); fill-opacity: 1; stroke: rgb(229, 236, 246); stroke-opacity: 1;"/></g><g class="point"><path d="M302.48,8.6V53.62H348.28V8.6Z" style="vector-effect: non-scaling-stroke; opacity: 1; stroke-width: 0.5px; fill: rgb(106, 76, 147); fill-opacity: 1; stroke: rgb(229, 236, 246); stroke-opacity: 1;"/></g><g class="point"><path d="M359.72,8.6V79.35H405.52V8.6Z" style="vector-effect: non-scaling-stroke; opacity: 1; stroke-width: 0.5px; fill: rgb(106, 76, 147); fill-opacity: 1; stroke: rgb(229, 236, 246); stroke-opacity: 1;"/></g><g class="point"><path d="M416.97,8.6V72.92H462.77V8.6Z" style="vector-effect: non-scaling-stroke; opacity: 1; stroke-width: 0.5px; fill: rgb(106, 76, 147); fill-opacity: 1; stroke: rgb(229, 236, 246); stroke-opacity: 1;"/></g><g class="point"><path d="M474.22,8.6V140.44H520.01V8.6Z" style="vector-effect: non-scaling-stroke; opacity: 1; stroke-width: 0.5px; fill: rgb(106, 76, 147); fill-opacity: 1; stroke: rgb(229, 236, 246); stroke-opacity: 1;"/></g><g class="point"><path d="M531.46,8.6V134.01H577.26V8.6Z" style="vector-effect: non-scaling-stroke; opacity: 1; stroke-width: 0.5px; fill: rgb(106, 76, 147); fill-opacity: 1; stroke: rgb(229, 236, 246); stroke-opacity: 1;"/></g><g class="point"><path d="M588.71,8.6V34.33H634.5V8.6Z" style="vector-effect: non-scaling-stroke; opacity: 1; stroke-width: 0.5px; fill: rgb(106, 76, 147); fill-opacity: 1; stroke: rgb(229, 236, 246); stroke-opacity: 1;"/></g><g class="point"><path d="M645.95,8.6V66.48H691.75V8.6Z" style="vector-effect: non-scaling-stroke; opacity: 1; stroke-width: 0.5px; fill: rgb(106, 76, 147); fill-opacity: 1; stroke: rgb(229, 236, 246); stroke-opacity: 1;"/></g></g></g></g><g class="scatterlayer mlayer"><g class="trace scatter trace75bc38" style="stroke-miterlimit: 2; opacity: 1;"><g class="fills"/><g class="errorbars"/><g class="lines"><path class="js-line" d="M39.15,43.97L96.4,18.25L153.64,37.54L210.89,53.62L268.13,18.25L325.38,40.76L382.62,53.62L439.87,34.33L497.11,76.13L554.36,82.56L611.6,31.11L668.85,47.19" style="vector-effect: non-scaling-stroke; fill: none; stroke: rgb(218, 255, 237); stroke-opacity: 1; stroke-width: 2px; opacity: 1;"/></g><g class="points"><path class="point" transform="translate(39.15,43.97)" d="M3,0A3,3 0 1,1 0,-3A3,3 0 0,1 3,0Z" style="opacity: 1; stroke-width: 0px; fill: rgb(218, 255, 237); fill-opacity: 1;"/><path class="point" transform="translate(96.4,18.25)" d="M3,0A3,3 0 1,1 0,-3A3,3 0 0,1 3,0Z" style="opacity: 1; stroke-width: 0px; fill: rgb(218, 255, 237); fill-opacity: 1;"/><path class="point" transform="translate(153.64,37.54)" d="M3,0A3,3 0 1,1 0,-3A3,3 0 0,1 3,0Z" style="opacity: 1; stroke-width: 0px; fill: rgb(218, 255, 237); fill-opacity: 1;"/><path class="point" transform="translate(210.89,53.62)" d="M3,0A3,3 0 1,1 0,-3A3,3 0 0,1 3,0Z" style="opacity: 1; stroke-width: 0px; fill: rgb(218, 255, 237); fill-opacity: 1;"/><path class="point" transform="translate(268.13,18.25)" d="M3,0A3,3 0 1,1 0,-3A3,3 0 0,1 3,0Z" style="opacity: 1; stroke-width: 0px; fill: rgb(218, 255, 237); fill-opacity: 1;"/><path class="point" transform="translate(325.38,40.76)" d="M3,0A3,3 0 1,1 0,-3A3,3 0 0,1 3,0Z" style="opacity: 1; stroke-width: 0px; fill: rgb(218, 255, 237); fill-opacity: 1;"/><path class="point" transform="translate(382.62,53.62)" d="M3,0A3,3 0 1,1 0,-3A3,3 0 0,1 3,0Z" style="opacity: 1; stroke-width: 0px; fill: rgb(218, 255, 237); fill-opacity: 1;"/><path class="point" transform="translate(439.87,34.33)" d="M3,0A3,3 0 1,1 0,-3A3,3 0 0,1 3,0Z" style="opacity: 1; stroke-width: 0px; fill: rgb(218, 255, 237); fill-opacity: 1;"/><path class="point" transform="translate(497.11,76.13)" d="M3,0A3,3 0 1,1 0,-3A3,3 0 0,1 3,0Z" style="opacity: 1; stroke-width: 0px; fill: rgb(218, 255, 237); fill-opacity: 1;"/><path class="point" transform="translate(554.36,82.56)" d="M3,0A3,3 0 1,1 0,-3A3,3 0 0,1 3,0Z" style="opacity: 1; stroke-width: 0px; fill: rgb(218, 255, 237); fill-opacity: 1;"/><path class="point" transform="translate(611.6,31.11)" d="M3,0A3,3 0 1,1 0,-3A3,3 0 0,1 3,0Z" style="opacity: 1; stroke-width: 0px; fill: rgb(218, 255, 237); fill-opacity: 1;"/><path class="point" transform="translate(668.85,47.19)" d="M3,0A3,3 0 1,1 0,-3A3,3 0 0,1 3,0Z" style="opacity: 1; stroke-width: 0px; fill: rgb(218, 255, 237); fill-opacity: 1;"/></g><g class="text"/></g><g class="trace scatter trace29bc00" style="stroke-miterlimit: 2; opacity: 1;"><g class="fills"/><g class="errorbars"/><g class="lines"><path class="js-line" d="M39.15,88.99L96.4,92.21L153.64,101.86L210.89,92.21L268.13,95.42L325.38,82.56L382.62,98.64L439.87,98.64L497.11,88.99L554.36,88.99L611.6,69.7L668.85,88.99" style="vector-effect: non-scaling-stroke; fill: none; stroke: rgb(99, 173, 242); stroke-opacity: 1; stroke-width: 2px; opacity: 1;"/></g><g class="points"><path class="point" transform="translate(39.15,88.99)" d="M3,0A3,3 0 1,1 0,-3A3,3 0 0,1 3,0Z" style="opacity: 1; stroke-width: 0px; fill: rgb(99, 173, 242); fill-opacity: 1;"/><path class="point" transform="translate(96.4,92.21)" d="M3,0A3,3 0 1,1 0,-3A3,3 0 0,1 3,0Z" style="opacity: 1; stroke-width: 0px; fill: rgb(99, 173, 242); fill-opacity: 1;"/><path class="point" transform="translate(153.64,101.86)" d="M3,0A3,3 0 1,1 0,-3A3,3 0 0,1 3,0Z" style="opacity: 1; stroke-width: 0px; fill: rgb(99, 173, 242); fill-opacity: 1;"/><path class="point" transform="translate(210.89,92.21)" d="M3,0A3,3 0 1,1 0,-3A3,3 0 0,1 3,0Z" style="opacity: 1; stroke-width: 0px; fill: rgb(99, 173, 242); fill-opacity: 1;"/><path class="point" transform="translate(268.13,95.42)" d="M3,0A3,3 0 1,1 0,-3A3,3 0 0,1 3,0Z" style="opacity: 1; stroke-width: 0px; fill: rgb(99, 173, 242); fill-opacity: 1;"/><path class="point" transform="translate(325.38,82.56)" d="M3,0A3,3 0 1,1 0,-3A3,3 0 0,1 3,0Z" style="opacity: 1; stroke-width: 0px; fill: rgb(99, 173, 242); fill-opacity: 1;"/><path class="point" transform="translate(382.62,98.64)" d="M3,0A3,3 0 1,1 0,-3A3,3 0 0,1 3,0Z" style="opacity: 1; stroke-width: 0px; fill: rgb(99, 173, 242); fill-opacity: 1;"/><path class="point" transform="translate(439.87,98.64)" d="M3,0A3,3 0 1,1 0,-3A3,3 0 0,1 3,0Z" style="opacity: 1; stroke-width: 0px; fill: rgb(99, 173, 242); fill-opacity: 1;"/><path class="point" transform="translate(497.11,88.99)" d="M3,0A3,3 0 1,1 0,-3A3,3 0 0,1 3,0Z" style="opacity: 1; stroke-width: 0px; fill: rgb(99, 173, 242); fill-opacity: 1;"/><path class="point" transform="translate(554.36,88.99)" d="M3,0A3,3 0 1,1 0,-3A3,3 0 0,1 3,0Z" style="opacity: 1; stroke-width: 0px; fill: rgb(99, 173, 242); fill-opacity: 1;"/><path class="point" transform="translate(611.6,69.7)" d="M3,0A3,3 0 1,1 0,-3A3,3 0 0,1 3,0Z" style="opacity: 1; stroke-width: 0px; fill: rgb(99, 173, 242); fill-opacity: 1;"/><path class="point" transform="translate(668.85,88.99)" d="M3,0A3,3 0 1,1 0,-3A3,3 0 0,1 3,0Z" style="opacity: 1; stroke-width: 0px; fill: rgb(99, 173, 242); fill-opacity: 1;"/></g><g class="text"/></g></g></g><g class="overplot"/><path class="xlines-above crisp" d="M98,401H810" style="fill: none; stroke-width: 2px; stroke: rgb(51, 51, 51); stroke-opacity: 1;"/><path class="ylines-above crisp" d="M99,110V400M809,110V400" style="fill: none; stroke-width: 2px; stroke: rgb(51, 51, 51); stroke-opacity: 1;"/><g class="overlines-above"/><g class="xaxislayer-above"><path class="xtick ticks crisp" d="M0,402v5" transform="translate(139.15,0)" style="stroke: rgb(68, 68, 68); stroke-opacity: 1; stroke-width: 1px;"/><path class="xtick ticks crisp" d="M0,402v5" transform="translate(196.4,0)" style="stroke: rgb(68, 68, 68); stroke-opacity: 1; stroke-width: 1px;"/><path class="xtick ticks crisp" d="M0,402v5" transform="translate(253.64,0)" style="stroke: rgb(68, 68, 68); stroke-opacity: 1; stroke-width: 1px;"/><path class="xtick ticks crisp" d="M0,402v5" transform="translate(310.89,0)" style="stroke: rgb(68, 68, 68); stroke-opacity: 1; stroke-width: 1px;"/><path class="xtick ticks crisp" d="M0,402v5" transform="translate(368.13,0)" style="stroke: rgb(68, 68, 68); stroke-opacity: 1; stroke-width: 1px;"/><path class="xtick ticks crisp" d="M0,402v5" transform="translate(425.38,0)" style="stroke: rgb(68, 68, 68); stroke-opacity: 1; stroke-width: 1px;"/><path class="xtick ticks crisp" d="M0,402v5" transform="translate(482.62,0)" style="stroke: rgb(68, 68, 68); stroke-opacity: 1; stroke-width: 1px;"/><path class="xtick ticks crisp" d="M0,402v5" transform="translate(539.87,0)" style="stroke: rgb(68, 68, 68); stroke-opacity: 1; stroke-width: 1px;"/><path class="xtick ticks crisp" d="M0,402v5" transform="translate(597.11,0)" style="stroke: rgb(68, 68, 68); stroke-opacity: 1; stroke-width: 1px;"/><path class="xtick ticks crisp" d="M0,402v5" transform="translate(654.36,0)" style="stroke: rgb(68, 68, 68); stroke-opacity: 1; stroke-width: 1px;"/><path class="xtick ticks crisp" d="M0,402v5" transform="translate(711.6,0)" style="stroke: rgb(68, 68, 68); stroke-opacity: 1; stroke-width: 1px;"/><path class="xtick ticks crisp" d="M0,402v5" transform="translate(768.85,0)" style="stroke: rgb(68, 68, 68); stroke-opacity: 1; stroke-width: 1px;"/><g class="xtick"><text text-anchor="middle" x="0" y="421.4" transform="translate(139.15,0)" style="font-family: Helvetica; font-size: 12px; fill: rgb(51, 51, 51); fill-opacity: 1; white-space: pre; opacity: 1;">2010</text></g><g class="xtick"><text text-anchor="middle" x="0" y="421.4" transform="translate(196.4,0)" style="font-family: Helvetica; font-size: 12px; fill: rgb(51, 51, 51); fill-opacity: 1; white-space: pre; opacity: 1;">2011</text></g><g class="xtick"><text text-anchor="middle" x="0" y="421.4" transform="translate(253.64,0)" style="font-family: Helvetica; font-size: 12px; fill: rgb(51, 51, 51); fill-opacity: 1; white-space: pre; opacity: 1;">2012</text></g><g class="xtick"><text text-anchor="middle" x="0" y="421.4" transform="translate(310.89,0)" style="font-family: Helvetica; font-size: 12px; fill: rgb(51, 51, 51); fill-opacity: 1; white-space: pre; opacity: 1;">2013</text></g><g class="xtick"><text text-anchor="middle" x="0" y="421.4" transform="translate(368.13,0)" style="font-family: Helvetica; font-size: 12px; fill: rgb(51, 51, 51); fill-opacity: 1; white-space: pre; opacity: 1;">2014</text></g><g class="xtick"><text text-anchor="middle" x="0" y="421.4" transform="translate(425.38,0)" style="font-family: Helvetica; font-size: 12px; fill: rgb(51, 51, 51); fill-opacity: 1; white-space: pre; opacity: 1;">2015</text></g><g class="xtick"><text text-anchor="middle" x="0" y="421.4" transform="translate(482.62,0)" style="font-family: Helvetica; font-size: 12px; fill: rgb(51, 51, 51); fill-opacity: 1; white-space: pre; opacity: 1;">2016</text></g><g class="xtick"><text text-anchor="middle" x="0" y="421.4" transform="translate(539.87,0)" style="font-family: Helvetica; font-size: 12px; fill: rgb(51, 51, 51); fill-opacity: 1; white-space: pre; opacity: 1;">2017</text></g><g class="xtick"><text text-anchor="middle" x="0" y="421.4" transform="translate(597.11,0)" style="font-family: Helvetica; font-size: 12px; fill: rgb(51, 51, 51); fill-opacity: 1; white-space: pre; opacity: 1;">2018</text></g><g class="xtick"><text text-anchor="middle" x="0" y="421.4" transform="translate(654.36,0)" style="font-family: Helvetica; font-size: 12px; fill: rgb(51, 51, 51); fill-opacity: 1; white-space: pre; opacity: 1;">2019</text></g><g class="xtick"><text text-anchor="middle" x="0" y="421.4" transform="translate(711.6,0)" style="font-family: Helvetica; font-size: 12px; fill: rgb(51, 51, 51); fill-opacity: 1; white-space: pre; opacity: 1;">2020</text></g><g class="xtick"><text text-anchor="middle" x="0" y="421.4" transform="translate(768.85,0)" style="font-family: Helvetica; font-size: 12px; fill: rgb(51, 51, 51); fill-opacity: 1; white-space: pre; opacity: 1;">2021</text></g></g><g class="yaxislayer-above"><path class="ytick ticks crisp" d="M98,0h-5" transform="translate(0,375.85)" style="stroke: rgb(68, 68, 68); stroke-opacity: 1; stroke-width: 1px;"/><path class="ytick ticks crisp" d="M98,0h-5" transform="translate(0,311.53999999999996)" style="stroke: rgb(68, 68, 68); stroke-opacity: 1; stroke-width: 1px;"/><path class="ytick ticks crisp" d="M98,0h-5" transform="translate(0,247.23)" style="stroke: rgb(68, 68, 68); stroke-opacity: 1; stroke-width: 1px;"/><path class="ytick ticks crisp" d="M98,0h-5" transform="translate(0,182.92000000000002)" style="stroke: rgb(68, 68, 68); stroke-opacity: 1; stroke-width: 1px;"/><path class="ytick ticks crisp" d="M98,0h-5" transform="translate(0,118.6)" style="stroke: rgb(68, 68, 68); stroke-opacity: 1; stroke-width: 1px;"/><g class="ytick"><text text-anchor="end" x="90.6" y="4.199999999999999" transform="translate(0,375.85)" style="font-family: Helvetica; font-size: 12px; fill: rgb(51, 51, 51); fill-opacity: 1; white-space: pre; opacity: 1;">80</text></g><g class="ytick"><text text-anchor="end" x="90.6" y="4.199999999999999" style="font-family: Helvetica; font-size: 12px; fill: rgb(51, 51, 51); fill-opacity: 1; white-space: pre; opacity: 1;" transform="translate(0,311.53999999999996)">60</text></g><g class="ytick"><text text-anchor="end" x="90.6" y="4.199999999999999" style="font-family: Helvetica; font-size: 12px; fill: rgb(51, 51, 51); fill-opacity: 1; white-space: pre; opacity: 1;" transform="translate(0,247.23)">40</text></g><g class="ytick"><text text-anchor="end" x="90.6" y="4.199999999999999" style="font-family: Helvetica; font-size: 12px; fill: rgb(51, 51, 51); fill-opacity: 1; white-space: pre; opacity: 1;" transform="translate(0,182.92000000000002)">20</text></g><g class="ytick"><text text-anchor="end" x="90.6" y="4.199999999999999" style="font-family: Helvetica; font-size: 12px; fill: rgb(51, 51, 51); fill-opacity: 1; white-space: pre; opacity: 1;" transform="translate(0,118.6)">0</text></g></g><g class="overaxes-above"/></g></g><g class="polarlayer"/><g class="smithlayer"/><g class="ternarylayer"/><g class="geolayer"/><g class="funnelarealayer"/><g class="pielayer"/><g class="iciclelayer"/><g class="treemaplayer"/><g class="sunburstlayer"/><g class="glimages"/><defs id="topdefs-79ec5d"><g class="clips"/><clipPath id="legend79ec5d"><rect width="246" height="86" x="0" y="0"/></clipPath></defs><g class="layer-above"><g class="imagelayer"/><g class="shapelayer"/></g><g class="infolayer"><g class="legend" pointer-events="all" transform="translate(822.16,110)"><rect class="bg" shape-rendering="crispEdges" width="246" height="86" x="0" y="0" style="stroke: rgb(68, 68, 68); stroke-opacity: 1; fill: rgb(255, 255, 255); fill-opacity: 1; stroke-width: 0px;"/><g class="scrollbox" transform="" clip-path="url(#legend79ec5d)"><g class="groups"><g class="traces" transform="translate(0,14.5)" style="opacity: 1;"><text class="legendtext" text-anchor="start" x="40" y="4.680000000000001" style="font-family: 'Open Sans', verdana, arial, sans-serif; font-size: 12px; fill: rgb(42, 63, 95); fill-opacity: 1; white-space: pre;">Кол-во стран-участниц</text><g class="layers" style="opacity: 1;"><g class="legendfill"/><g class="legendlines"/><g class="legendsymbols"><g class="legendpoints"><path class="legendundefined" d="M6,6H-6V-6H6Z" transform="translate(20,0)" style="stroke-width: 0.5px; fill: rgb(187, 189, 246); fill-opacity: 1; stroke: rgb(229, 236, 246); stroke-opacity: 1;"/></g></g></g><rect class="legendtoggle" x="0" y="-9.5" width="240.109375" height="19" style="fill: rgb(0, 0, 0); fill-opacity: 0;"/></g><g class="traces" transform="translate(0,33.5)" style="opacity: 1;"><text class="legendtext" text-anchor="start" x="40" y="4.680000000000001" style="font-family: 'Open Sans', verdana, arial, sans-serif; font-size: 12px; fill: rgb(42, 63, 95); fill-opacity: 1; white-space: pre;">Кол-во стран, выше РК в рейтинге</text><g class="layers" style="opacity: 1;"><g class="legendfill"/><g class="legendlines"/><g class="legendsymbols"><g class="legendpoints"><path class="legendundefined" d="M6,6H-6V-6H6Z" transform="translate(20,0)" style="stroke-width: 0.5px; fill: rgb(106, 76, 147); fill-opacity: 1; stroke: rgb(229, 236, 246); stroke-opacity: 1;"/></g></g></g><rect class="legendtoggle" x="0" y="-9.5" width="240.109375" height="19" style="fill: rgb(0, 0, 0); fill-opacity: 0;"/></g><g class="traces" transform="translate(0,52.5)" style="opacity: 1;"><text class="legendtext" text-anchor="start" x="40" y="4.680000000000001" style="font-family: 'Open Sans', verdana, arial, sans-serif; font-size: 12px; fill: rgb(42, 63, 95); fill-opacity: 1; white-space: pre;">Место РК в рейтинге</text><g class="layers" style="opacity: 1;"><g class="legendfill"/><g class="legendlines"><path class="js-line" d="M5,0h30" style="fill: none; stroke: rgb(218, 255, 237); stroke-opacity: 1; stroke-width: 2px;"/></g><g class="legendsymbols"><g class="legendpoints"><path class="scatterpts" transform="translate(20,0)" d="M3,0A3,3 0 1,1 0,-3A3,3 0 0,1 3,0Z" style="opacity: 1; stroke-width: 0px; fill: rgb(218, 255, 237); fill-opacity: 1;"/></g></g></g><rect class="legendtoggle" x="0" y="-9.5" width="240.109375" height="19" style="fill: rgb(0, 0, 0); fill-opacity: 0;"/></g><g class="traces" transform="translate(0,71.5)" style="opacity: 1;"><text class="legendtext" text-anchor="start" x="40" y="4.680000000000001" style="font-family: 'Open Sans', verdana, arial, sans-serif; font-size: 12px; fill: rgb(42, 63, 95); fill-opacity: 1; white-space: pre;">Общее кол-во мест в рейтинге</text><g class="layers" style="opacity: 1;"><g class="legendfill"/><g class="legendlines"><path class="js-line" d="M5,0h30" style="fill: none; stroke: rgb(99, 173, 242); stroke-opacity: 1; stroke-width: 2px;"/></g><g class="legendsymbols"><g class="legendpoints"><path class="scatterpts" transform="translate(20,0)" d="M3,0A3,3 0 1,1 0,-3A3,3 0 0,1 3,0Z" style="opacity: 1; stroke-width: 0px; fill: rgb(99, 173, 242); fill-opacity: 1;"/></g></g></g><rect class="legendtoggle" x="0" y="-9.5" width="240.109375" height="19" style="fill: rgb(0, 0, 0); fill-opacity: 0;"/></g></g></g><rect class="scrollbar" rx="20" ry="3" width="0" height="0" x="0" y="0" style="fill: rgb(128, 139, 164); fill-opacity: 1;"/></g><g class="g-gtitle"><text class="gtitle" x="540" y="72" text-anchor="middle" dy="0.7em" style="font-family: 'Open Sans', verdana, arial, sans-serif; font-size: 17px; fill: rgb(51, 51, 51); opacity: 1; font-weight: normal; white-space: pre;">Медальный зачет на IPhO</text></g><g class="g-xtitle"><text class="xtitle" x="454" y="449.20625" text-anchor="middle" style="font-family: 'Open Sans', verdana, arial, sans-serif; font-size: 14px; fill: rgb(42, 63, 95); opacity: 1; font-weight: normal; white-space: pre;">Год</text></g><g class="g-ytitle"/></g></svg>